# MagicaVoxel @ Ephtracy

# group
o 

# material
mtllib Itembox.mtl
usemtl palette

# normals
vn -1 0 0
vn 1 0 0
vn 0 0 1
vn 0 0 -1
vn 0 -1 0
vn 0 1 0

# texcoords
vt 0.958984 0.5
vt 0.994141 0.5

# verts
v -2 0 2
v -2 0 -2
v -2 4 2
v -2 4 -2
v 2 0 2
v 2 0 -2
v 2 4 2
v 2 4 -2
v -2 0 2
v -2 4 2
v -1.2 0.6 2
v -1.2 3.4 2
v -0.6 0.6 2
v -0.6 2.1 2
v -0.4 2.5 2
v -0.4 2.9 2
v 0.6 2.5 2
v 0.6 2.9 2
v 0.7 3.3 2
v 0.7 3.4 2
v 0.8 2.1 2
v 0.8 2.2 2
v 0.9 2.2 2
v 0.9 2.3 2
v 1 2.3 2
v 1 2.4 2
v 1.1 2.4 2
v 1.1 2.6 2
v 1.1 3.1 2
v 1.1 3.3 2
v 1.2 2.6 2
v 1.2 3.1 2
v 2 0 2
v 2 4 2
v -2 0 -2
v -2 4 -2
v 2 0 -2
v 2 4 -2
v -2 0 2
v 2 0 2
v -2 0 -2
v 2 0 -2
v -2 4 2
v 2 4 2
v -2 4 -2
v 2 4 -2

# faces
f 3/1/1 2/1/1 1/1/1
f 4/1/1 2/1/1 3/1/1
f 5/1/2 6/1/2 7/1/2
f 7/1/2 6/1/2 8/1/2
f 11/1/3 10/1/3 9/1/3
f 12/1/3 10/1/3 11/1/3
f 13/1/3 11/1/3 9/1/3
f 13/2/3 12/2/3 11/2/3
f 14/2/3 12/2/3 13/2/3
f 15/2/3 12/2/3 14/2/3
f 16/2/3 12/2/3 15/2/3
f 17/2/3 15/2/3 14/2/3
f 17/1/3 16/1/3 15/1/3
f 18/2/3 12/2/3 16/2/3
f 18/1/3 16/1/3 17/1/3
f 19/2/3 18/2/3 17/2/3
f 19/2/3 12/2/3 18/2/3
f 20/1/3 10/1/3 12/1/3
f 20/2/3 12/2/3 19/2/3
f 21/2/3 19/2/3 17/2/3
f 21/1/3 14/1/3 13/1/3
f 21/2/3 17/2/3 14/2/3
f 22/2/3 19/2/3 21/2/3
f 23/1/3 22/1/3 21/1/3
f 23/2/3 19/2/3 22/2/3
f 24/2/3 19/2/3 23/2/3
f 25/1/3 24/1/3 23/1/3
f 25/2/3 19/2/3 24/2/3
f 26/2/3 19/2/3 25/2/3
f 27/1/3 26/1/3 25/1/3
f 27/2/3 19/2/3 26/2/3
f 28/2/3 19/2/3 27/2/3
f 29/2/3 19/2/3 28/2/3
f 30/1/3 20/1/3 19/1/3
f 30/2/3 19/2/3 29/2/3
f 31/2/3 29/2/3 28/2/3
f 31/1/3 28/1/3 27/1/3
f 32/1/3 30/1/3 29/1/3
f 32/2/3 29/2/3 31/2/3
f 33/1/3 13/1/3 9/1/3
f 33/1/3 21/1/3 13/1/3
f 33/1/3 32/1/3 31/1/3
f 33/1/3 31/1/3 27/1/3
f 33/1/3 27/1/3 25/1/3
f 33/1/3 25/1/3 23/1/3
f 33/1/3 23/1/3 21/1/3
f 34/1/3 10/1/3 20/1/3
f 34/1/3 32/1/3 33/1/3
f 34/1/3 30/1/3 32/1/3
f 34/1/3 20/1/3 30/1/3
f 35/1/4 36/1/4 37/1/4
f 37/1/4 36/1/4 38/1/4
f 41/1/5 40/1/5 39/1/5
f 42/1/5 40/1/5 41/1/5
f 43/1/6 44/1/6 45/1/6
f 45/1/6 44/1/6 46/1/6
